<svg xmlns="http://www.w3.org/2000/svg" viewBox="0 0 50 50"><path d="M 15 0 C 13.90625 0 13 0.90625 13 2 L 6 2 C 4.355469 2 3 3.355469 3 5 L 3 41 C 3 42.644531 4.355469 44 6 44 L 36 44 C 37.644531 44 39 42.644531 39 41 L 39 5 C 39 3.355469 37.644531 2 36 2 L 29 2 C 29 0.90625 28.09375 0 27 0 Z M 15 2 L 27 2 L 27 5 C 27 5.566406 26.566406 6 26 6 L 16 6 C 15.433594 6 15 5.566406 15 5 Z M 6 4 L 13 4 L 13 5 C 13 6.644531 14.355469 8 16 8 L 26 8 C 27.644531 8 29 6.644531 29 5 L 29 4 L 36 4 C 36.554688 4 37 4.445313 37 5 L 37 41 C 37 41.554688 36.554688 42 36 42 L 6 42 C 5.445313 42 5 41.554688 5 41 L 5 5 C 5 4.445313 5.445313 4 6 4 Z M 21 14 L 21 16 L 23 16 L 23 14 Z M 25 14 L 25 16 L 27 16 L 27 14 Z M 29 14 L 29 16 L 31 16 L 31 14 Z M 33 14 L 33 16 L 35 16 L 35 14 Z M 41 14 L 41 16 L 43 16 L 43 14 Z M 45 14 L 45 16 L 47 16 L 47 14 Z M 21 18 L 21 20 L 23 20 L 23 18 Z M 45 18 L 45 20 L 47 20 L 47 18 Z M 21 22 L 21 24 L 23 24 L 23 22 Z M 45 22 L 45 24 L 47 24 L 47 22 Z M 21 26 L 21 28 L 23 28 L 23 26 Z M 45 26 L 45 28 L 47 28 L 47 26 Z M 21 30 L 21 32 L 23 32 L 23 30 Z M 45 30 L 45 32 L 47 32 L 47 30 Z M 21 34 L 21 36 L 23 36 L 23 34 Z M 45 34 L 45 36 L 47 36 L 47 34 Z M 21 38 L 21 40 L 23 40 L 23 38 Z M 45 38 L 45 40 L 47 40 L 47 38 Z M 45 42 L 45 44 L 47 44 L 47 42 Z M 21 46 L 21 48 L 23 48 L 23 46 Z M 25 46 L 25 48 L 27 48 L 27 46 Z M 29 46 L 29 48 L 31 48 L 31 46 Z M 33 46 L 33 48 L 35 48 L 35 46 Z M 37 46 L 37 48 L 39 48 L 39 46 Z M 41 46 L 41 48 L 43 48 L 43 46 Z M 45 46 L 45 48 L 47 48 L 47 46 Z"/></svg>
